<svg width="1080" height="1080" viewBox="0 0 1080 1080" fill="none" xmlns="http://www.w3.org/2000/svg">
<path d="M564.794 88C564.616 88.0002 365.819 433.075 365.727 433.234C365.651 433.387 221.93 682.43 188 741.447C222.82 718.84 276.607 699.807 343.296 686.494C409.985 673.181 486.925 666.118 565.44 666.102C644.328 666.102 721.631 673.216 788.555 686.633C855.479 700.051 909.337 719.234 944 742C911.046 684.987 764.775 432.891 764.691 432.747C764.589 432.594 564.979 88 564.794 88Z" fill="#DD2C46"/>
<path d="M423 740.354C423.034 740.296 565.934 740.182 566 740.182C566.065 740.182 708.967 739.951 709 740.009C709.034 740.067 637.681 864.947 637.648 865.005C637.614 865.063 566.363 990 566.296 990C566.231 990 494.681 865.235 494.648 865.177C494.614 865.119 422.967 740.412 423 740.354V740.354Z" fill="#EBB14F"/>
</svg>
