<svg width="95" height="20" viewBox="0 0 95 20" fill="none" xmlns="http://www.w3.org/2000/svg">
<path d="M28.7417 15.976C28.6243 15.6445 28.5494 15.1536 28.5168 14.5035C28.106 15.0366 27.5812 15.4494 26.9422 15.742C26.3098 16.028 25.6383 16.1711 24.9276 16.1711C23.9105 16.1711 23.0857 15.8883 22.4533 15.3226C21.8273 14.757 21.5144 14.0419 21.5144 13.1772C21.5144 12.15 21.9415 11.3373 22.7956 10.7392C23.6562 10.141 24.8526 9.84197 26.3848 9.84197H28.507V8.64247C28.507 7.88831 28.2723 7.29667 27.8028 6.86758C27.3399 6.43199 26.6618 6.21419 25.7686 6.21419C24.9536 6.21419 24.2788 6.42223 23.7442 6.83832C23.2096 7.25441 22.9422 7.75502 22.9422 8.34015L21.7687 8.33041C21.7687 7.49173 22.1599 6.76682 22.9422 6.15569C23.7246 5.53806 24.6863 5.22925 25.8273 5.22925C27.0074 5.22925 27.9365 5.52506 28.6146 6.11669C29.2991 6.70182 29.6512 7.52099 29.6708 8.57421V13.5673C29.6708 14.588 29.7783 15.3519 29.9935 15.859V15.976L28.7417 15.976ZM25.0645 15.1374C25.8469 15.1374 26.5445 14.9488 27.1574 14.5717C27.7768 14.1946 28.2266 13.6908 28.507 13.0602V10.7392H26.4141C25.247 10.7521 24.3343 10.9667 23.6757 11.3828C23.0172 11.7924 22.688 12.358 22.688 13.0797C22.688 13.6713 22.9064 14.1621 23.3433 14.5522C23.7866 14.9423 24.3604 15.1374 25.0645 15.1374Z" fill="#333333"/>
<path d="M39.1278 13.2942C39.1278 12.7156 38.8931 12.2508 38.4236 11.8997C37.9607 11.5486 37.2599 11.2756 36.321 11.0805C35.3821 10.879 34.6519 10.6514 34.1303 10.3979C33.6152 10.1378 33.2306 9.82248 32.9763 9.4519C32.7285 9.08132 32.6047 8.63273 32.6047 8.10612C32.6047 7.27394 32.9535 6.58804 33.6511 6.04843C34.3487 5.50231 35.242 5.22925 36.3308 5.22925C37.5109 5.22925 38.4562 5.52181 39.1669 6.10694C39.8841 6.68556 40.2427 7.44297 40.2427 8.37917H39.0691C39.0691 7.76154 38.8083 7.24793 38.2867 6.83834C37.7717 6.42875 37.1197 6.22397 36.3308 6.22397C35.5614 6.22397 34.942 6.39625 34.4726 6.74083C34.0097 7.0789 33.7782 7.52099 33.7782 8.06711C33.7782 8.59372 33.9706 9.00331 34.3552 9.29587C34.7464 9.58193 35.4538 9.84523 36.4775 10.0858C37.5076 10.3263 38.2769 10.5831 38.7855 10.8562C39.3006 11.1293 39.682 11.4576 39.9297 11.8412C40.1775 12.2247 40.3014 12.6896 40.3014 13.2357C40.3014 14.1264 39.9395 14.8383 39.2158 15.3714C38.4986 15.9045 37.5597 16.1711 36.3992 16.1711C35.167 16.1711 34.1662 15.8753 33.3968 15.2836C32.634 14.6855 32.2526 13.9314 32.2526 13.0212H33.4262C33.4718 13.7038 33.7587 14.2369 34.2868 14.6205C34.8214 14.9976 35.5255 15.1861 36.3992 15.1861C37.2142 15.1861 37.8727 15.0073 38.3747 14.6498C38.8768 14.2922 39.1278 13.8403 39.1278 13.2942Z" fill="#333333"/>
<path d="M44.7512 2.7229V5.42422H46.9419V6.37993H44.7512V13.4112C44.7512 13.9963 44.8556 14.4319 45.0642 14.718C45.2794 15.004 45.6347 15.147 46.1302 15.147C46.3258 15.147 46.642 15.1145 47.0788 15.0495L47.1277 16.0052C46.8213 16.1158 46.404 16.171 45.8759 16.171C45.074 16.171 44.4904 15.9402 44.1253 15.4786C43.7602 15.0105 43.5777 14.3246 43.5777 13.4209V6.37993H41.6315V5.42422H43.5777V2.7229H44.7512Z" fill="#333333"/>
<path d="M54.2574 6.419C54.0096 6.37349 53.7455 6.35074 53.4652 6.35074C52.735 6.35074 52.1156 6.55553 51.607 6.96512C51.105 7.36821 50.7464 7.95659 50.5313 8.73025V15.976H49.3674V5.42429H50.5117L50.5313 7.10165C51.1506 5.85338 52.1449 5.22925 53.5141 5.22925C53.8401 5.22925 54.0976 5.27151 54.2867 5.35603L54.2574 6.419Z" fill="#333333"/>
<path d="M62.394 15.976C62.2767 15.6445 62.2017 15.1536 62.1691 14.5035C61.7583 15.0366 61.2335 15.4494 60.5946 15.742C59.9621 16.028 59.2906 16.1711 58.5799 16.1711C57.5628 16.1711 56.738 15.8883 56.1056 15.3226C55.4797 14.757 55.1667 14.0419 55.1667 13.1772C55.1667 12.15 55.5938 11.3373 56.4479 10.7392C57.3085 10.141 58.5049 9.84197 60.0371 9.84197H62.1593V8.64247C62.1593 7.88831 61.9246 7.29667 61.4552 6.86758C60.9922 6.43199 60.3142 6.21419 59.421 6.21419C58.606 6.21419 57.9312 6.42223 57.3965 6.83832C56.8619 7.25441 56.5946 7.75502 56.5946 8.34015L55.421 8.33041C55.421 7.49173 55.8122 6.76682 56.5946 6.15569C57.377 5.53806 58.3386 5.22925 59.4796 5.22925C60.6597 5.22925 61.5888 5.52506 62.2669 6.11669C62.9515 6.70182 63.3035 7.52099 63.3231 8.57421V13.5673C63.3231 14.588 63.4307 15.3519 63.6459 15.859V15.976L62.394 15.976ZM58.7168 15.1374C59.4992 15.1374 60.1968 14.9488 60.8097 14.5717C61.4291 14.1946 61.879 13.6908 62.1593 13.0602V10.7392H60.0664C58.8994 10.7521 57.9866 10.9667 57.3281 11.3828C56.6696 11.7924 56.3403 12.358 56.3403 13.0797C56.3403 13.6713 56.5587 14.1621 56.9956 14.5522C57.4389 14.9423 58.0127 15.1374 58.7168 15.1374Z" fill="#333333"/>
<path d="M69.592 14.3667L72.8096 5.42407H74.0125L70.0614 15.9758H69.1128L65.1422 5.42407H66.3451L69.592 14.3667Z" fill="#333333"/>
<path d="M82.736 14.6398C82.0319 15.6605 80.9072 16.1709 79.362 16.1709C78.234 16.1709 77.3767 15.8458 76.7899 15.1957C76.2031 14.539 75.9032 13.5703 75.8901 12.2895V5.42407H77.0539V12.1433C77.0539 14.1522 77.8689 15.1567 79.4989 15.1567C81.1941 15.1567 82.2666 14.4577 82.7165 13.0599V5.42407H83.8901V15.9758H82.7556L82.736 14.6398Z" fill="#333333"/>
<path d="M91.0295 16.1711C90.1297 16.1711 89.3147 15.95 88.5845 15.508C87.8608 15.0659 87.2968 14.4515 86.8926 13.6648C86.4883 12.8716 86.2863 11.9842 86.2863 11.0025V10.5831C86.2863 9.56893 86.4818 8.65549 86.873 7.84281C87.2707 7.03014 87.8217 6.393 88.5258 5.9314C89.23 5.4633 89.9928 5.22925 90.8143 5.22925C92.0987 5.22925 93.1158 5.66809 93.8656 6.54578C94.6219 7.41697 95.0001 8.60997 95.0001 10.1248V10.7782H87.45V11.0025C87.45 12.1987 87.7923 13.1967 88.4769 13.9964C89.168 14.7895 90.0352 15.1861 91.0783 15.1861C91.7043 15.1861 92.2552 15.0724 92.7312 14.8448C93.2136 14.6173 93.6504 14.2532 94.0416 13.7526L94.7751 14.3084C93.9145 15.5502 92.6659 16.1711 91.0295 16.1711ZM90.8143 6.22397C89.9341 6.22397 89.1909 6.54579 88.5845 7.18942C87.9847 7.83306 87.6196 8.69774 87.4892 9.78346H93.8363V9.6567C93.8037 8.64249 93.5135 7.8168 92.9659 7.17966C92.4182 6.54253 91.701 6.22397 90.8143 6.22397Z" fill="#333333"/>
<path d="M8.35417 0C8.35022 4.504e-06 3.94256 7.68842 3.94052 7.69198C3.93883 7.69539 0.752294 13.2442 0 14.5591C0.772024 14.0554 1.96457 13.6313 3.44318 13.3347C4.9218 13.0381 6.62768 12.8807 8.36849 12.8804C10.1176 12.8804 11.8315 13.0389 13.3153 13.3378C14.7992 13.6368 15.9933 14.0642 16.7618 14.5714C16.0312 13.3011 12.7881 7.68434 12.7862 7.68113C12.784 7.67772 8.35827 0 8.35417 0Z" fill="#DD2C46"/>
<path d="M5.15751 14.5791C5.15828 14.5779 8.37944 14.5754 8.38094 14.5754C8.38241 14.5754 11.6036 14.5704 11.6044 14.5716C11.6051 14.5729 9.99674 17.2846 9.996 17.2858C9.99523 17.2871 8.38911 20 8.38761 20C8.38614 20 6.77331 17.2908 6.77256 17.2896C6.7718 17.2883 5.15677 14.5804 5.15751 14.5791V14.5791Z" fill="#EBB14F"/>
</svg>
